# xmcd CD database file
#
# Track frame offsets:
#	183
#	15008
#	31323
#	41680
#	62528
#	86575
#	110213
#	127458
#	143275
#	165075
#
# Disc length: 2484 seconds
#
# Revision: 0
# Processed by: cddbd v1.5.2PL0 Copyright (c) Steve Scherf et al.
# Submitted via: CDex 1.51
#
DISCID=7509b20a
DTITLE=Schick Wedlich - SOL
DYEAR=1900
DGENRE=Jazz
TTITLE0=AZAHAR
TTITLE1=CORTIJO
TTITLE2=WIND
TTITLE3=SPANISH ISLAND
TTITLE4=APAGA LA LUZ Y VAMONOS
TTITLE5=CHAMAQUITAS
TTITLE6=SIROCCO
TTITLE7=SONNE
TTITLE8=EL RITMO DE LA TIERRA
TTITLE9=GAMBAJILLO
EXTD=
EXTT0=
EXTT1=
EXTT2=
EXTT3=
EXTT4=
EXTT5=
EXTT6=
EXTT7=
EXTT8=
EXTT9=
PLAYORDER=
